<svg width="41" height="41" viewBox="0 0 41 41" fill="none" xmlns="http://www.w3.org/2000/svg">
<path d="M40.5587 20.7402C40.5587 19.3022 40.427 17.9196 40.1824 16.5922H20.6932V24.4458H31.8299C31.3408 26.9715 29.8734 29.1101 27.6724 30.548V35.6547H34.3883C38.3012 32.1151 40.5587 26.9162 40.5587 20.7402Z" fill="#4285F4"/>
<path d="M20.6932 40.5587C26.2804 40.5587 30.9645 38.752 34.3883 35.6547L27.6724 30.548C25.8289 31.7648 23.4774 32.5022 20.6932 32.5022C15.313 32.5022 10.7416 28.9441 9.10501 24.1508H2.21982V29.3866C5.62479 36.005 12.604 40.5587 20.6932 40.5587Z" fill="#34A853"/>
<path d="M9.10501 24.1324C8.69114 22.9156 8.44658 21.6251 8.44658 20.2793C8.44658 18.9335 8.69114 17.643 9.10501 16.4263V11.1905H2.21982C0.808916 13.919 0 16.9978 0 20.2793C0 23.5609 0.808916 26.6397 2.21982 29.3682L7.58123 25.2754L9.10501 24.1324Z" fill="#FBBC05"/>
<path d="M20.6932 8.07486C23.7407 8.07486 26.4497 9.10726 28.613 11.0983L34.5388 5.29106C30.9457 2.0095 26.2804 0 20.6932 0C12.604 0 5.62479 4.55363 2.21982 11.1905L9.10501 16.4263C10.7416 11.633 15.313 8.07486 20.6932 8.07486Z" fill="#EA4335"/>
</svg>
