<svg width="20" height="20" viewBox="0 0 20 20" fill="none" xmlns="http://www.w3.org/2000/svg">
<rect width="20" height="20" rx="10" fill="#98D7EE"/>
<path d="M5 7.5C5 6.80964 5.55964 6.25 6.25 6.25H13.75C14.4404 6.25 15 6.80964 15 7.5V12.5C15 13.1904 14.4404 13.75 13.75 13.75H6.25C5.55964 13.75 5 13.1904 5 12.5V7.5ZM6.25 6.875C5.90482 6.875 5.625 7.15482 5.625 7.5V7.63557L10 10.2606L14.375 7.63557V7.5C14.375 7.15482 14.0952 6.875 13.75 6.875H6.25ZM14.375 8.36443L11.4325 10.13L14.375 11.9408V8.36443ZM14.3539 12.6616L10.8286 10.4922L10 10.9894L9.17136 10.4922L5.6461 12.6616C5.71734 12.9285 5.96072 13.125 6.25 13.125H13.75C14.0393 13.125 14.2827 12.9285 14.3539 12.6616ZM5.625 11.9408L8.56755 10.13L5.625 8.36443V11.9408Z" fill="white"/>
</svg>
