<svg width="17" height="18" viewBox="0 0 17 18" fill="none" xmlns="http://www.w3.org/2000/svg">
<path d="M9.87376 15.6904C10.0175 15.508 10.2741 15.4448 10.49 15.5527C10.7367 15.6763 10.8369 15.9768 10.7136 16.2236L10.2663 16C10.7029 16.2183 10.7136 16.2236 10.7136 16.2236L10.7126 16.2246L10.7107 16.2285C10.7098 16.2303 10.7089 16.2331 10.7077 16.2354C10.7053 16.24 10.7015 16.2455 10.698 16.252C10.6907 16.2652 10.6817 16.2828 10.6697 16.3027C10.6454 16.3426 10.6107 16.3953 10.5652 16.4561C10.4738 16.5779 10.3354 16.7353 10.1413 16.8906C9.74663 17.2064 9.13762 17.4999 8.26634 17.5C7.39499 17.5 6.78611 17.2064 6.39134 16.8906C6.19718 16.7353 6.05892 16.5779 5.96751 16.4561C5.92189 16.3952 5.88728 16.3427 5.86302 16.3027C5.85088 16.2827 5.84201 16.2652 5.8347 16.252C5.83112 16.2454 5.82742 16.2401 5.82494 16.2354C5.82372 16.233 5.82296 16.2304 5.82201 16.2285L5.82005 16.2256L5.81908 16.2246C5.82218 16.2227 5.85862 16.2039 6.26634 16L5.81908 16.2246C5.69558 15.9776 5.79572 15.6762 6.04271 15.5527C6.28925 15.4297 6.58883 15.5294 6.71263 15.7754L6.71849 15.7832C6.7274 15.7979 6.7438 15.8238 6.7683 15.8564C6.81754 15.9221 6.89829 16.0149 7.01634 16.1094C7.2466 16.2935 7.63794 16.5 8.26634 16.5C8.89468 16.4999 9.28615 16.2935 9.51634 16.1094C9.6343 16.015 9.71518 15.922 9.76439 15.8564C9.78881 15.8239 9.80532 15.7978 9.81419 15.7832L9.82005 15.7744L9.87376 15.6904Z" fill="#333333"/>
<path d="M9.87376 15.6904C10.0175 15.508 10.2741 15.4448 10.49 15.5527C10.7367 15.6763 10.8369 15.9768 10.7136 16.2236L10.2663 16C10.7029 16.2183 10.7136 16.2236 10.7136 16.2236L10.7126 16.2246L10.7107 16.2285C10.7098 16.2303 10.7089 16.2331 10.7077 16.2354C10.7053 16.24 10.7015 16.2455 10.698 16.252C10.6907 16.2652 10.6817 16.2828 10.6697 16.3027C10.6454 16.3426 10.6107 16.3953 10.5652 16.4561C10.4738 16.5779 10.3354 16.7353 10.1413 16.8906C9.74663 17.2064 9.13762 17.4999 8.26634 17.5C7.39499 17.5 6.78611 17.2064 6.39134 16.8906C6.19718 16.7353 6.05892 16.5779 5.96751 16.4561C5.92189 16.3952 5.88728 16.3427 5.86302 16.3027C5.85088 16.2827 5.84201 16.2652 5.8347 16.252C5.83112 16.2454 5.82742 16.2401 5.82494 16.2354C5.82372 16.233 5.82296 16.2304 5.82201 16.2285L5.82005 16.2256L5.81908 16.2246C5.82218 16.2227 5.85862 16.2039 6.26634 16L5.81908 16.2246C5.69558 15.9776 5.79572 15.6762 6.04271 15.5527C6.28925 15.4297 6.58883 15.5294 6.71263 15.7754L6.71849 15.7832C6.7274 15.7979 6.7438 15.8238 6.7683 15.8564C6.81754 15.9221 6.89829 16.0149 7.01634 16.1094C7.2466 16.2935 7.63794 16.5 8.26634 16.5C8.89468 16.4999 9.28615 16.2935 9.51634 16.1094C9.6343 16.015 9.71518 15.922 9.76439 15.8564C9.78881 15.8239 9.80532 15.7978 9.81419 15.7832L9.82005 15.7744L9.87376 15.6904Z" fill="black" fill-opacity="0.2"/>
<path d="M9.87376 15.6904C10.0175 15.508 10.2741 15.4448 10.49 15.5527C10.7367 15.6763 10.8369 15.9768 10.7136 16.2236L10.2663 16C10.7029 16.2183 10.7136 16.2236 10.7136 16.2236L10.7126 16.2246L10.7107 16.2285C10.7098 16.2303 10.7089 16.2331 10.7077 16.2354C10.7053 16.24 10.7015 16.2455 10.698 16.252C10.6907 16.2652 10.6817 16.2828 10.6697 16.3027C10.6454 16.3426 10.6107 16.3953 10.5652 16.4561C10.4738 16.5779 10.3354 16.7353 10.1413 16.8906C9.74663 17.2064 9.13762 17.4999 8.26634 17.5C7.39499 17.5 6.78611 17.2064 6.39134 16.8906C6.19718 16.7353 6.05892 16.5779 5.96751 16.4561C5.92189 16.3952 5.88728 16.3427 5.86302 16.3027C5.85088 16.2827 5.84201 16.2652 5.8347 16.252C5.83112 16.2454 5.82742 16.2401 5.82494 16.2354C5.82372 16.233 5.82296 16.2304 5.82201 16.2285L5.82005 16.2256L5.81908 16.2246C5.82218 16.2227 5.85862 16.2039 6.26634 16L5.81908 16.2246C5.69558 15.9776 5.79572 15.6762 6.04271 15.5527C6.28925 15.4297 6.58883 15.5294 6.71263 15.7754L6.71849 15.7832C6.7274 15.7979 6.7438 15.8238 6.7683 15.8564C6.81754 15.9221 6.89829 16.0149 7.01634 16.1094C7.2466 16.2935 7.63794 16.5 8.26634 16.5C8.89468 16.4999 9.28615 16.2935 9.51634 16.1094C9.6343 16.015 9.71518 15.922 9.76439 15.8564C9.78881 15.8239 9.80532 15.7978 9.81419 15.7832L9.82005 15.7744L9.87376 15.6904Z" fill="black" fill-opacity="0.2"/>
<path d="M9.87376 15.6904C10.0175 15.508 10.2741 15.4448 10.49 15.5527C10.7367 15.6763 10.8369 15.9768 10.7136 16.2236L10.2663 16C10.7029 16.2183 10.7136 16.2236 10.7136 16.2236L10.7126 16.2246L10.7107 16.2285C10.7098 16.2303 10.7089 16.2331 10.7077 16.2354C10.7053 16.24 10.7015 16.2455 10.698 16.252C10.6907 16.2652 10.6817 16.2828 10.6697 16.3027C10.6454 16.3426 10.6107 16.3953 10.5652 16.4561C10.4738 16.5779 10.3354 16.7353 10.1413 16.8906C9.74663 17.2064 9.13762 17.4999 8.26634 17.5C7.39499 17.5 6.78611 17.2064 6.39134 16.8906C6.19718 16.7353 6.05892 16.5779 5.96751 16.4561C5.92189 16.3952 5.88728 16.3427 5.86302 16.3027C5.85088 16.2827 5.84201 16.2652 5.8347 16.252C5.83112 16.2454 5.82742 16.2401 5.82494 16.2354C5.82372 16.233 5.82296 16.2304 5.82201 16.2285L5.82005 16.2256L5.81908 16.2246C5.82218 16.2227 5.85862 16.2039 6.26634 16L5.81908 16.2246C5.69558 15.9776 5.79572 15.6762 6.04271 15.5527C6.28925 15.4297 6.58883 15.5294 6.71263 15.7754L6.71849 15.7832C6.7274 15.7979 6.7438 15.8238 6.7683 15.8564C6.81754 15.9221 6.89829 16.0149 7.01634 16.1094C7.2466 16.2935 7.63794 16.5 8.26634 16.5C8.89468 16.4999 9.28615 16.2935 9.51634 16.1094C9.6343 16.015 9.71518 15.922 9.76439 15.8564C9.78881 15.8239 9.80532 15.7978 9.81419 15.7832L9.82005 15.7744L9.87376 15.6904Z" fill="black" fill-opacity="0.2"/>
<path d="M9.87376 15.6904C10.0175 15.508 10.2741 15.4448 10.49 15.5527C10.7367 15.6763 10.8369 15.9768 10.7136 16.2236L10.2663 16C10.7029 16.2183 10.7136 16.2236 10.7136 16.2236L10.7126 16.2246L10.7107 16.2285C10.7098 16.2303 10.7089 16.2331 10.7077 16.2354C10.7053 16.24 10.7015 16.2455 10.698 16.252C10.6907 16.2652 10.6817 16.2828 10.6697 16.3027C10.6454 16.3426 10.6107 16.3953 10.5652 16.4561C10.4738 16.5779 10.3354 16.7353 10.1413 16.8906C9.74663 17.2064 9.13762 17.4999 8.26634 17.5C7.39499 17.5 6.78611 17.2064 6.39134 16.8906C6.19718 16.7353 6.05892 16.5779 5.96751 16.4561C5.92189 16.3952 5.88728 16.3427 5.86302 16.3027C5.85088 16.2827 5.84201 16.2652 5.8347 16.252C5.83112 16.2454 5.82742 16.2401 5.82494 16.2354C5.82372 16.233 5.82296 16.2304 5.82201 16.2285L5.82005 16.2256L5.81908 16.2246C5.82218 16.2227 5.85862 16.2039 6.26634 16L5.81908 16.2246C5.69558 15.9776 5.79572 15.6762 6.04271 15.5527C6.28925 15.4297 6.58883 15.5294 6.71263 15.7754L6.71849 15.7832C6.7274 15.7979 6.7438 15.8238 6.7683 15.8564C6.81754 15.9221 6.89829 16.0149 7.01634 16.1094C7.2466 16.2935 7.63794 16.5 8.26634 16.5C8.89468 16.4999 9.28615 16.2935 9.51634 16.1094C9.6343 16.015 9.71518 15.922 9.76439 15.8564C9.78881 15.8239 9.80532 15.7978 9.81419 15.7832L9.82005 15.7744L9.87376 15.6904Z" fill="black" fill-opacity="0.2"/>
<path d="M9.87376 15.6904C10.0175 15.508 10.2741 15.4448 10.49 15.5527C10.7367 15.6763 10.8369 15.9768 10.7136 16.2236L10.2663 16C10.7029 16.2183 10.7136 16.2236 10.7136 16.2236L10.7126 16.2246L10.7107 16.2285C10.7098 16.2303 10.7089 16.2331 10.7077 16.2354C10.7053 16.24 10.7015 16.2455 10.698 16.252C10.6907 16.2652 10.6817 16.2828 10.6697 16.3027C10.6454 16.3426 10.6107 16.3953 10.5652 16.4561C10.4738 16.5779 10.3354 16.7353 10.1413 16.8906C9.74663 17.2064 9.13762 17.4999 8.26634 17.5C7.39499 17.5 6.78611 17.2064 6.39134 16.8906C6.19718 16.7353 6.05892 16.5779 5.96751 16.4561C5.92189 16.3952 5.88728 16.3427 5.86302 16.3027C5.85088 16.2827 5.84201 16.2652 5.8347 16.252C5.83112 16.2454 5.82742 16.2401 5.82494 16.2354C5.82372 16.233 5.82296 16.2304 5.82201 16.2285L5.82005 16.2256L5.81908 16.2246C5.82218 16.2227 5.85862 16.2039 6.26634 16L5.81908 16.2246C5.69558 15.9776 5.79572 15.6762 6.04271 15.5527C6.28925 15.4297 6.58883 15.5294 6.71263 15.7754L6.71849 15.7832C6.7274 15.7979 6.7438 15.8238 6.7683 15.8564C6.81754 15.9221 6.89829 16.0149 7.01634 16.1094C7.2466 16.2935 7.63794 16.5 8.26634 16.5C8.89468 16.4999 9.28615 16.2935 9.51634 16.1094C9.6343 16.015 9.71518 15.922 9.76439 15.8564C9.78881 15.8239 9.80532 15.7978 9.81419 15.7832L9.82005 15.7744L9.87376 15.6904Z" fill="black" fill-opacity="0.2"/>
<path d="M9.87376 15.6904C10.0175 15.508 10.2741 15.4448 10.49 15.5527C10.7367 15.6763 10.8369 15.9768 10.7136 16.2236L10.2663 16C10.7029 16.2183 10.7136 16.2236 10.7136 16.2236L10.7126 16.2246L10.7107 16.2285C10.7098 16.2303 10.7089 16.2331 10.7077 16.2354C10.7053 16.24 10.7015 16.2455 10.698 16.252C10.6907 16.2652 10.6817 16.2828 10.6697 16.3027C10.6454 16.3426 10.6107 16.3953 10.5652 16.4561C10.4738 16.5779 10.3354 16.7353 10.1413 16.8906C9.74663 17.2064 9.13762 17.4999 8.26634 17.5C7.39499 17.5 6.78611 17.2064 6.39134 16.8906C6.19718 16.7353 6.05892 16.5779 5.96751 16.4561C5.92189 16.3952 5.88728 16.3427 5.86302 16.3027C5.85088 16.2827 5.84201 16.2652 5.8347 16.252C5.83112 16.2454 5.82742 16.2401 5.82494 16.2354C5.82372 16.233 5.82296 16.2304 5.82201 16.2285L5.82005 16.2256L5.81908 16.2246C5.82218 16.2227 5.85862 16.2039 6.26634 16L5.81908 16.2246C5.69558 15.9776 5.79572 15.6762 6.04271 15.5527C6.28925 15.4297 6.58883 15.5294 6.71263 15.7754L6.71849 15.7832C6.7274 15.7979 6.7438 15.8238 6.7683 15.8564C6.81754 15.9221 6.89829 16.0149 7.01634 16.1094C7.2466 16.2935 7.63794 16.5 8.26634 16.5C8.89468 16.4999 9.28615 16.2935 9.51634 16.1094C9.6343 16.015 9.71518 15.922 9.76439 15.8564C9.78881 15.8239 9.80532 15.7978 9.81419 15.7832L9.82005 15.7744L9.87376 15.6904Z" fill="black" fill-opacity="0.2"/>
<path d="M9.87376 15.6904C10.0175 15.508 10.2741 15.4448 10.49 15.5527C10.7367 15.6763 10.8369 15.9768 10.7136 16.2236L10.2663 16C10.7029 16.2183 10.7136 16.2236 10.7136 16.2236L10.7126 16.2246L10.7107 16.2285C10.7098 16.2303 10.7089 16.2331 10.7077 16.2354C10.7053 16.24 10.7015 16.2455 10.698 16.252C10.6907 16.2652 10.6817 16.2828 10.6697 16.3027C10.6454 16.3426 10.6107 16.3953 10.5652 16.4561C10.4738 16.5779 10.3354 16.7353 10.1413 16.8906C9.74663 17.2064 9.13762 17.4999 8.26634 17.5C7.39499 17.5 6.78611 17.2064 6.39134 16.8906C6.19718 16.7353 6.05892 16.5779 5.96751 16.4561C5.92189 16.3952 5.88728 16.3427 5.86302 16.3027C5.85088 16.2827 5.84201 16.2652 5.8347 16.252C5.83112 16.2454 5.82742 16.2401 5.82494 16.2354C5.82372 16.233 5.82296 16.2304 5.82201 16.2285L5.82005 16.2256L5.81908 16.2246C5.82218 16.2227 5.85862 16.2039 6.26634 16L5.81908 16.2246C5.69558 15.9776 5.79572 15.6762 6.04271 15.5527C6.28925 15.4297 6.58883 15.5294 6.71263 15.7754L6.71849 15.7832C6.7274 15.7979 6.7438 15.8238 6.7683 15.8564C6.81754 15.9221 6.89829 16.0149 7.01634 16.1094C7.2466 16.2935 7.63794 16.5 8.26634 16.5C8.89468 16.4999 9.28615 16.2935 9.51634 16.1094C9.6343 16.015 9.71518 15.922 9.76439 15.8564C9.78881 15.8239 9.80532 15.7978 9.81419 15.7832L9.82005 15.7744L9.87376 15.6904Z" fill="black" fill-opacity="0.2"/>
<path d="M9.87376 15.6904C10.0175 15.508 10.2741 15.4448 10.49 15.5527C10.7367 15.6763 10.8369 15.9768 10.7136 16.2236L10.2663 16C10.7029 16.2183 10.7136 16.2236 10.7136 16.2236L10.7126 16.2246L10.7107 16.2285C10.7098 16.2303 10.7089 16.2331 10.7077 16.2354C10.7053 16.24 10.7015 16.2455 10.698 16.252C10.6907 16.2652 10.6817 16.2828 10.6697 16.3027C10.6454 16.3426 10.6107 16.3953 10.5652 16.4561C10.4738 16.5779 10.3354 16.7353 10.1413 16.8906C9.74663 17.2064 9.13762 17.4999 8.26634 17.5C7.39499 17.5 6.78611 17.2064 6.39134 16.8906C6.19718 16.7353 6.05892 16.5779 5.96751 16.4561C5.92189 16.3952 5.88728 16.3427 5.86302 16.3027C5.85088 16.2827 5.84201 16.2652 5.8347 16.252C5.83112 16.2454 5.82742 16.2401 5.82494 16.2354C5.82372 16.233 5.82296 16.2304 5.82201 16.2285L5.82005 16.2256L5.81908 16.2246C5.82218 16.2227 5.85862 16.2039 6.26634 16L5.81908 16.2246C5.69558 15.9776 5.79572 15.6762 6.04271 15.5527C6.28925 15.4297 6.58883 15.5294 6.71263 15.7754L6.71849 15.7832C6.7274 15.7979 6.7438 15.8238 6.7683 15.8564C6.81754 15.9221 6.89829 16.0149 7.01634 16.1094C7.2466 16.2935 7.63794 16.5 8.26634 16.5C8.89468 16.4999 9.28615 16.2935 9.51634 16.1094C9.6343 16.015 9.71518 15.922 9.76439 15.8564C9.78881 15.8239 9.80532 15.7978 9.81419 15.7832L9.82005 15.7744L9.87376 15.6904Z" fill="black" fill-opacity="0.2"/>
<path d="M9.87376 15.6904C10.0175 15.508 10.2741 15.4448 10.49 15.5527C10.7367 15.6763 10.8369 15.9768 10.7136 16.2236L10.2663 16C10.7029 16.2183 10.7136 16.2236 10.7136 16.2236L10.7126 16.2246L10.7107 16.2285C10.7098 16.2303 10.7089 16.2331 10.7077 16.2354C10.7053 16.24 10.7015 16.2455 10.698 16.252C10.6907 16.2652 10.6817 16.2828 10.6697 16.3027C10.6454 16.3426 10.6107 16.3953 10.5652 16.4561C10.4738 16.5779 10.3354 16.7353 10.1413 16.8906C9.74663 17.2064 9.13762 17.4999 8.26634 17.5C7.39499 17.5 6.78611 17.2064 6.39134 16.8906C6.19718 16.7353 6.05892 16.5779 5.96751 16.4561C5.92189 16.3952 5.88728 16.3427 5.86302 16.3027C5.85088 16.2827 5.84201 16.2652 5.8347 16.252C5.83112 16.2454 5.82742 16.2401 5.82494 16.2354C5.82372 16.233 5.82296 16.2304 5.82201 16.2285L5.82005 16.2256L5.81908 16.2246C5.82218 16.2227 5.85862 16.2039 6.26634 16L5.81908 16.2246C5.69558 15.9776 5.79572 15.6762 6.04271 15.5527C6.28925 15.4297 6.58883 15.5294 6.71263 15.7754L6.71849 15.7832C6.7274 15.7979 6.7438 15.8238 6.7683 15.8564C6.81754 15.9221 6.89829 16.0149 7.01634 16.1094C7.2466 16.2935 7.63794 16.5 8.26634 16.5C8.89468 16.4999 9.28615 16.2935 9.51634 16.1094C9.6343 16.015 9.71518 15.922 9.76439 15.8564C9.78881 15.8239 9.80532 15.7978 9.81419 15.7832L9.82005 15.7744L9.87376 15.6904Z" fill="black" fill-opacity="0.2"/>
<path d="M9.87376 15.6904C10.0175 15.508 10.2741 15.4448 10.49 15.5527C10.7367 15.6763 10.8369 15.9768 10.7136 16.2236L10.2663 16C10.7029 16.2183 10.7136 16.2236 10.7136 16.2236L10.7126 16.2246L10.7107 16.2285C10.7098 16.2303 10.7089 16.2331 10.7077 16.2354C10.7053 16.24 10.7015 16.2455 10.698 16.252C10.6907 16.2652 10.6817 16.2828 10.6697 16.3027C10.6454 16.3426 10.6107 16.3953 10.5652 16.4561C10.4738 16.5779 10.3354 16.7353 10.1413 16.8906C9.74663 17.2064 9.13762 17.4999 8.26634 17.5C7.39499 17.5 6.78611 17.2064 6.39134 16.8906C6.19718 16.7353 6.05892 16.5779 5.96751 16.4561C5.92189 16.3952 5.88728 16.3427 5.86302 16.3027C5.85088 16.2827 5.84201 16.2652 5.8347 16.252C5.83112 16.2454 5.82742 16.2401 5.82494 16.2354C5.82372 16.233 5.82296 16.2304 5.82201 16.2285L5.82005 16.2256L5.81908 16.2246C5.82218 16.2227 5.85862 16.2039 6.26634 16L5.81908 16.2246C5.69558 15.9776 5.79572 15.6762 6.04271 15.5527C6.28925 15.4297 6.58883 15.5294 6.71263 15.7754L6.71849 15.7832C6.7274 15.7979 6.7438 15.8238 6.7683 15.8564C6.81754 15.9221 6.89829 16.0149 7.01634 16.1094C7.2466 16.2935 7.63794 16.5 8.26634 16.5C8.89468 16.4999 9.28615 16.2935 9.51634 16.1094C9.6343 16.015 9.71518 15.922 9.76439 15.8564C9.78881 15.8239 9.80532 15.7978 9.81419 15.7832L9.82005 15.7744L9.87376 15.6904Z" fill="black" fill-opacity="0.2"/>
<path d="M9.87376 15.6904C10.0175 15.508 10.2741 15.4448 10.49 15.5527C10.7367 15.6763 10.8369 15.9768 10.7136 16.2236L10.2663 16C10.7029 16.2183 10.7136 16.2236 10.7136 16.2236L10.7126 16.2246L10.7107 16.2285C10.7098 16.2303 10.7089 16.2331 10.7077 16.2354C10.7053 16.24 10.7015 16.2455 10.698 16.252C10.6907 16.2652 10.6817 16.2828 10.6697 16.3027C10.6454 16.3426 10.6107 16.3953 10.5652 16.4561C10.4738 16.5779 10.3354 16.7353 10.1413 16.8906C9.74663 17.2064 9.13762 17.4999 8.26634 17.5C7.39499 17.5 6.78611 17.2064 6.39134 16.8906C6.19718 16.7353 6.05892 16.5779 5.96751 16.4561C5.92189 16.3952 5.88728 16.3427 5.86302 16.3027C5.85088 16.2827 5.84201 16.2652 5.8347 16.252C5.83112 16.2454 5.82742 16.2401 5.82494 16.2354C5.82372 16.233 5.82296 16.2304 5.82201 16.2285L5.82005 16.2256L5.81908 16.2246C5.82218 16.2227 5.85862 16.2039 6.26634 16L5.81908 16.2246C5.69558 15.9776 5.79572 15.6762 6.04271 15.5527C6.28925 15.4297 6.58883 15.5294 6.71263 15.7754L6.71849 15.7832C6.7274 15.7979 6.7438 15.8238 6.7683 15.8564C6.81754 15.9221 6.89829 16.0149 7.01634 16.1094C7.2466 16.2935 7.63794 16.5 8.26634 16.5C8.89468 16.4999 9.28615 16.2935 9.51634 16.1094C9.6343 16.015 9.71518 15.922 9.76439 15.8564C9.78881 15.8239 9.80532 15.7978 9.81419 15.7832L9.82005 15.7744L9.87376 15.6904Z" fill="black" fill-opacity="0.2"/>
<path fill-rule="evenodd" clip-rule="evenodd" d="M8.26634 0C11.5799 0.000148428 14.2663 2.68638 14.2663 6V8.0918L14.2742 8.31348C14.3123 8.82766 14.4829 9.32478 14.7702 9.75586L16.1931 11.8906C17.079 13.2196 16.1262 14.9998 14.529 15H2.00365L1.85521 14.9951C0.396768 14.8926 -0.462376 13.2869 0.261459 12.0166L0.339584 11.8906L1.76244 9.75586C2.04977 9.32481 2.22042 8.82762 2.25853 8.31348L2.26634 8.0918V6C2.26634 2.68629 4.95263 0 8.26634 0ZM8.26634 1C5.50492 1 3.26634 3.23858 3.26634 6V8.0918C3.26632 8.8814 3.03244 9.65354 2.59447 10.3105L1.17162 12.4453C0.728579 13.1099 1.20495 14 2.00365 14H14.529C15.3275 13.9998 15.8039 13.1098 15.3611 12.4453L13.9382 10.3105C13.5002 9.65351 13.2664 8.88145 13.2663 8.0918V6C13.2663 3.23867 11.0276 1.00015 8.26634 1Z" fill="#333333"/>
<path fill-rule="evenodd" clip-rule="evenodd" d="M8.26634 0C11.5799 0.000148428 14.2663 2.68638 14.2663 6V8.0918L14.2742 8.31348C14.3123 8.82766 14.4829 9.32478 14.7702 9.75586L16.1931 11.8906C17.079 13.2196 16.1262 14.9998 14.529 15H2.00365L1.85521 14.9951C0.396768 14.8926 -0.462376 13.2869 0.261459 12.0166L0.339584 11.8906L1.76244 9.75586C2.04977 9.32481 2.22042 8.82762 2.25853 8.31348L2.26634 8.0918V6C2.26634 2.68629 4.95263 0 8.26634 0ZM8.26634 1C5.50492 1 3.26634 3.23858 3.26634 6V8.0918C3.26632 8.8814 3.03244 9.65354 2.59447 10.3105L1.17162 12.4453C0.728579 13.1099 1.20495 14 2.00365 14H14.529C15.3275 13.9998 15.8039 13.1098 15.3611 12.4453L13.9382 10.3105C13.5002 9.65351 13.2664 8.88145 13.2663 8.0918V6C13.2663 3.23867 11.0276 1.00015 8.26634 1Z" fill="black" fill-opacity="0.2"/>
<path fill-rule="evenodd" clip-rule="evenodd" d="M8.26634 0C11.5799 0.000148428 14.2663 2.68638 14.2663 6V8.0918L14.2742 8.31348C14.3123 8.82766 14.4829 9.32478 14.7702 9.75586L16.1931 11.8906C17.079 13.2196 16.1262 14.9998 14.529 15H2.00365L1.85521 14.9951C0.396768 14.8926 -0.462376 13.2869 0.261459 12.0166L0.339584 11.8906L1.76244 9.75586C2.04977 9.32481 2.22042 8.82762 2.25853 8.31348L2.26634 8.0918V6C2.26634 2.68629 4.95263 0 8.26634 0ZM8.26634 1C5.50492 1 3.26634 3.23858 3.26634 6V8.0918C3.26632 8.8814 3.03244 9.65354 2.59447 10.3105L1.17162 12.4453C0.728579 13.1099 1.20495 14 2.00365 14H14.529C15.3275 13.9998 15.8039 13.1098 15.3611 12.4453L13.9382 10.3105C13.5002 9.65351 13.2664 8.88145 13.2663 8.0918V6C13.2663 3.23867 11.0276 1.00015 8.26634 1Z" fill="black" fill-opacity="0.2"/>
<path fill-rule="evenodd" clip-rule="evenodd" d="M8.26634 0C11.5799 0.000148428 14.2663 2.68638 14.2663 6V8.0918L14.2742 8.31348C14.3123 8.82766 14.4829 9.32478 14.7702 9.75586L16.1931 11.8906C17.079 13.2196 16.1262 14.9998 14.529 15H2.00365L1.85521 14.9951C0.396768 14.8926 -0.462376 13.2869 0.261459 12.0166L0.339584 11.8906L1.76244 9.75586C2.04977 9.32481 2.22042 8.82762 2.25853 8.31348L2.26634 8.0918V6C2.26634 2.68629 4.95263 0 8.26634 0ZM8.26634 1C5.50492 1 3.26634 3.23858 3.26634 6V8.0918C3.26632 8.8814 3.03244 9.65354 2.59447 10.3105L1.17162 12.4453C0.728579 13.1099 1.20495 14 2.00365 14H14.529C15.3275 13.9998 15.8039 13.1098 15.3611 12.4453L13.9382 10.3105C13.5002 9.65351 13.2664 8.88145 13.2663 8.0918V6C13.2663 3.23867 11.0276 1.00015 8.26634 1Z" fill="black" fill-opacity="0.2"/>
<path fill-rule="evenodd" clip-rule="evenodd" d="M8.26634 0C11.5799 0.000148428 14.2663 2.68638 14.2663 6V8.0918L14.2742 8.31348C14.3123 8.82766 14.4829 9.32478 14.7702 9.75586L16.1931 11.8906C17.079 13.2196 16.1262 14.9998 14.529 15H2.00365L1.85521 14.9951C0.396768 14.8926 -0.462376 13.2869 0.261459 12.0166L0.339584 11.8906L1.76244 9.75586C2.04977 9.32481 2.22042 8.82762 2.25853 8.31348L2.26634 8.0918V6C2.26634 2.68629 4.95263 0 8.26634 0ZM8.26634 1C5.50492 1 3.26634 3.23858 3.26634 6V8.0918C3.26632 8.8814 3.03244 9.65354 2.59447 10.3105L1.17162 12.4453C0.728579 13.1099 1.20495 14 2.00365 14H14.529C15.3275 13.9998 15.8039 13.1098 15.3611 12.4453L13.9382 10.3105C13.5002 9.65351 13.2664 8.88145 13.2663 8.0918V6C13.2663 3.23867 11.0276 1.00015 8.26634 1Z" fill="black" fill-opacity="0.2"/>
<path fill-rule="evenodd" clip-rule="evenodd" d="M8.26634 0C11.5799 0.000148428 14.2663 2.68638 14.2663 6V8.0918L14.2742 8.31348C14.3123 8.82766 14.4829 9.32478 14.7702 9.75586L16.1931 11.8906C17.079 13.2196 16.1262 14.9998 14.529 15H2.00365L1.85521 14.9951C0.396768 14.8926 -0.462376 13.2869 0.261459 12.0166L0.339584 11.8906L1.76244 9.75586C2.04977 9.32481 2.22042 8.82762 2.25853 8.31348L2.26634 8.0918V6C2.26634 2.68629 4.95263 0 8.26634 0ZM8.26634 1C5.50492 1 3.26634 3.23858 3.26634 6V8.0918C3.26632 8.8814 3.03244 9.65354 2.59447 10.3105L1.17162 12.4453C0.728579 13.1099 1.20495 14 2.00365 14H14.529C15.3275 13.9998 15.8039 13.1098 15.3611 12.4453L13.9382 10.3105C13.5002 9.65351 13.2664 8.88145 13.2663 8.0918V6C13.2663 3.23867 11.0276 1.00015 8.26634 1Z" fill="black" fill-opacity="0.2"/>
<path fill-rule="evenodd" clip-rule="evenodd" d="M8.26634 0C11.5799 0.000148428 14.2663 2.68638 14.2663 6V8.0918L14.2742 8.31348C14.3123 8.82766 14.4829 9.32478 14.7702 9.75586L16.1931 11.8906C17.079 13.2196 16.1262 14.9998 14.529 15H2.00365L1.85521 14.9951C0.396768 14.8926 -0.462376 13.2869 0.261459 12.0166L0.339584 11.8906L1.76244 9.75586C2.04977 9.32481 2.22042 8.82762 2.25853 8.31348L2.26634 8.0918V6C2.26634 2.68629 4.95263 0 8.26634 0ZM8.26634 1C5.50492 1 3.26634 3.23858 3.26634 6V8.0918C3.26632 8.8814 3.03244 9.65354 2.59447 10.3105L1.17162 12.4453C0.728579 13.1099 1.20495 14 2.00365 14H14.529C15.3275 13.9998 15.8039 13.1098 15.3611 12.4453L13.9382 10.3105C13.5002 9.65351 13.2664 8.88145 13.2663 8.0918V6C13.2663 3.23867 11.0276 1.00015 8.26634 1Z" fill="black" fill-opacity="0.2"/>
<path fill-rule="evenodd" clip-rule="evenodd" d="M8.26634 0C11.5799 0.000148428 14.2663 2.68638 14.2663 6V8.0918L14.2742 8.31348C14.3123 8.82766 14.4829 9.32478 14.7702 9.75586L16.1931 11.8906C17.079 13.2196 16.1262 14.9998 14.529 15H2.00365L1.85521 14.9951C0.396768 14.8926 -0.462376 13.2869 0.261459 12.0166L0.339584 11.8906L1.76244 9.75586C2.04977 9.32481 2.22042 8.82762 2.25853 8.31348L2.26634 8.0918V6C2.26634 2.68629 4.95263 0 8.26634 0ZM8.26634 1C5.50492 1 3.26634 3.23858 3.26634 6V8.0918C3.26632 8.8814 3.03244 9.65354 2.59447 10.3105L1.17162 12.4453C0.728579 13.1099 1.20495 14 2.00365 14H14.529C15.3275 13.9998 15.8039 13.1098 15.3611 12.4453L13.9382 10.3105C13.5002 9.65351 13.2664 8.88145 13.2663 8.0918V6C13.2663 3.23867 11.0276 1.00015 8.26634 1Z" fill="black" fill-opacity="0.2"/>
<path fill-rule="evenodd" clip-rule="evenodd" d="M8.26634 0C11.5799 0.000148428 14.2663 2.68638 14.2663 6V8.0918L14.2742 8.31348C14.3123 8.82766 14.4829 9.32478 14.7702 9.75586L16.1931 11.8906C17.079 13.2196 16.1262 14.9998 14.529 15H2.00365L1.85521 14.9951C0.396768 14.8926 -0.462376 13.2869 0.261459 12.0166L0.339584 11.8906L1.76244 9.75586C2.04977 9.32481 2.22042 8.82762 2.25853 8.31348L2.26634 8.0918V6C2.26634 2.68629 4.95263 0 8.26634 0ZM8.26634 1C5.50492 1 3.26634 3.23858 3.26634 6V8.0918C3.26632 8.8814 3.03244 9.65354 2.59447 10.3105L1.17162 12.4453C0.728579 13.1099 1.20495 14 2.00365 14H14.529C15.3275 13.9998 15.8039 13.1098 15.3611 12.4453L13.9382 10.3105C13.5002 9.65351 13.2664 8.88145 13.2663 8.0918V6C13.2663 3.23867 11.0276 1.00015 8.26634 1Z" fill="black" fill-opacity="0.2"/>
<path fill-rule="evenodd" clip-rule="evenodd" d="M8.26634 0C11.5799 0.000148428 14.2663 2.68638 14.2663 6V8.0918L14.2742 8.31348C14.3123 8.82766 14.4829 9.32478 14.7702 9.75586L16.1931 11.8906C17.079 13.2196 16.1262 14.9998 14.529 15H2.00365L1.85521 14.9951C0.396768 14.8926 -0.462376 13.2869 0.261459 12.0166L0.339584 11.8906L1.76244 9.75586C2.04977 9.32481 2.22042 8.82762 2.25853 8.31348L2.26634 8.0918V6C2.26634 2.68629 4.95263 0 8.26634 0ZM8.26634 1C5.50492 1 3.26634 3.23858 3.26634 6V8.0918C3.26632 8.8814 3.03244 9.65354 2.59447 10.3105L1.17162 12.4453C0.728579 13.1099 1.20495 14 2.00365 14H14.529C15.3275 13.9998 15.8039 13.1098 15.3611 12.4453L13.9382 10.3105C13.5002 9.65351 13.2664 8.88145 13.2663 8.0918V6C13.2663 3.23867 11.0276 1.00015 8.26634 1Z" fill="black" fill-opacity="0.2"/>
<path fill-rule="evenodd" clip-rule="evenodd" d="M8.26634 0C11.5799 0.000148428 14.2663 2.68638 14.2663 6V8.0918L14.2742 8.31348C14.3123 8.82766 14.4829 9.32478 14.7702 9.75586L16.1931 11.8906C17.079 13.2196 16.1262 14.9998 14.529 15H2.00365L1.85521 14.9951C0.396768 14.8926 -0.462376 13.2869 0.261459 12.0166L0.339584 11.8906L1.76244 9.75586C2.04977 9.32481 2.22042 8.82762 2.25853 8.31348L2.26634 8.0918V6C2.26634 2.68629 4.95263 0 8.26634 0ZM8.26634 1C5.50492 1 3.26634 3.23858 3.26634 6V8.0918C3.26632 8.8814 3.03244 9.65354 2.59447 10.3105L1.17162 12.4453C0.728579 13.1099 1.20495 14 2.00365 14H14.529C15.3275 13.9998 15.8039 13.1098 15.3611 12.4453L13.9382 10.3105C13.5002 9.65351 13.2664 8.88145 13.2663 8.0918V6C13.2663 3.23867 11.0276 1.00015 8.26634 1Z" fill="black" fill-opacity="0.2"/>
<path fill-rule="evenodd" clip-rule="evenodd" d="M8.26634 0C11.5799 0.000148428 14.2663 2.68638 14.2663 6V8.0918L14.2742 8.31348C14.3123 8.82766 14.4829 9.32478 14.7702 9.75586L16.1931 11.8906C17.079 13.2196 16.1262 14.9998 14.529 15H2.00365L1.85521 14.9951C0.396768 14.8926 -0.462376 13.2869 0.261459 12.0166L0.339584 11.8906L1.76244 9.75586C2.04977 9.32481 2.22042 8.82762 2.25853 8.31348L2.26634 8.0918V6C2.26634 2.68629 4.95263 0 8.26634 0ZM8.26634 1C5.50492 1 3.26634 3.23858 3.26634 6V8.0918C3.26632 8.8814 3.03244 9.65354 2.59447 10.3105L1.17162 12.4453C0.728579 13.1099 1.20495 14 2.00365 14H14.529C15.3275 13.9998 15.8039 13.1098 15.3611 12.4453L13.9382 10.3105C13.5002 9.65351 13.2664 8.88145 13.2663 8.0918V6C13.2663 3.23867 11.0276 1.00015 8.26634 1Z" fill="black" fill-opacity="0.2"/>
</svg>
