<svg width="20" height="20" viewBox="0 0 20 20" fill="none" xmlns="http://www.w3.org/2000/svg">
<rect width="20" height="20" rx="10" fill="#98D7EE"/>
<g clip-path="url(#clip0_3298_52569)">
<path d="M10.2941 5.82353C10.1103 5.72549 9.88971 5.72549 9.70588 5.82353L5.95588 7.82353C5.75222 7.93215 5.625 8.14418 5.625 8.375V8.88557L9.21875 11.0418L10 10.5731L10.7812 11.0418L14.375 8.88557V8.375C14.375 8.14418 14.2478 7.93215 14.0441 7.82353L10.2941 5.82353ZM14.375 9.61443L11.3886 11.4062L14.375 13.1981V9.61443ZM14.3533 13.9139L10 11.3019L5.64671 13.9139C5.71872 14.1796 5.96154 14.375 6.25 14.375H13.75C14.0385 14.375 14.2813 14.1796 14.3533 13.9139ZM5.625 13.1981L8.61136 11.4062L5.625 9.61443V13.1981ZM9.41176 5.27206C9.77941 5.07598 10.2206 5.07598 10.5882 5.27206L14.3382 7.27206C14.7456 7.4893 15 7.91336 15 8.375V13.75C15 14.4404 14.4404 15 13.75 15H6.25C5.55964 15 5 14.4404 5 13.75V8.375C5 7.91336 5.25444 7.4893 5.66176 7.27206L9.41176 5.27206Z" fill="white"/>
</g>
<defs>
<clipPath id="clip0_3298_52569">
<rect width="10" height="10" fill="white" transform="translate(5 5)"/>
</clipPath>
</defs>
</svg>
