<svg width="20" height="20" viewBox="0 0 20 20" fill="none" xmlns="http://www.w3.org/2000/svg">
<rect width="20" height="20" rx="10" fill="#DDF4FF"/>
<path d="M14.375 13.75C14.375 13.75 15 13.75 15 13.125C15 12.5 14.375 10.625 11.875 10.625C9.375 10.625 8.75 12.5 8.75 13.125C8.75 13.75 9.375 13.75 9.375 13.75H14.375ZM9.38897 13.125C9.3868 13.1247 9.38377 13.1244 9.38009 13.1237C9.37836 13.1234 9.37666 13.1231 9.37501 13.1228C9.37591 12.9578 9.47929 12.4793 9.84953 12.0474C10.1958 11.6433 10.8017 11.25 11.875 11.25C12.9483 11.25 13.5542 11.6433 13.9005 12.0474C14.2707 12.4793 14.3741 12.9578 14.375 13.1228C14.3733 13.1231 14.3716 13.1234 14.3699 13.1237C14.3662 13.1244 14.3632 13.1247 14.361 13.125H9.38897Z" fill="#166683"/>
<path d="M11.875 9.375C12.5654 9.375 13.125 8.81536 13.125 8.125C13.125 7.43464 12.5654 6.875 11.875 6.875C11.1846 6.875 10.625 7.43464 10.625 8.125C10.625 8.81536 11.1846 9.375 11.875 9.375ZM13.75 8.125C13.75 9.16053 12.9105 10 11.875 10C10.8395 10 10 9.16053 10 8.125C10 7.08947 10.8395 6.25 11.875 6.25C12.9105 6.25 13.75 7.08947 13.75 8.125Z" fill="#166683"/>
<path d="M9.33496 10.8C9.10508 10.7264 8.84971 10.673 8.56643 10.6457C8.42622 10.6321 8.27918 10.625 8.125 10.625C5.625 10.625 5 12.5 5 13.125C5 13.5417 5.20833 13.75 5.625 13.75H8.26023C8.17223 13.5724 8.125 13.362 8.125 13.125C8.125 12.4936 8.36078 11.8488 8.80614 11.3101C8.95829 11.1261 9.13492 10.9545 9.33496 10.8ZM8.07503 11.2503C7.7016 11.821 7.5 12.4717 7.5 13.125H5.625C5.625 12.962 5.72765 12.4812 6.09954 12.0474C6.44043 11.6497 7.03281 11.2623 8.07503 11.2503Z" fill="#166683"/>
<path d="M5.9375 8.4375C5.9375 7.40197 6.77697 6.5625 7.8125 6.5625C8.84803 6.5625 9.6875 7.40197 9.6875 8.4375C9.6875 9.47303 8.84803 10.3125 7.8125 10.3125C6.77697 10.3125 5.9375 9.47303 5.9375 8.4375ZM7.8125 7.1875C7.12214 7.1875 6.5625 7.74714 6.5625 8.4375C6.5625 9.12786 7.12214 9.6875 7.8125 9.6875C8.50286 9.6875 9.0625 9.12786 9.0625 8.4375C9.0625 7.74714 8.50286 7.1875 7.8125 7.1875Z" fill="#166683"/>
</svg>
