<svg width="16" height="16" viewBox="0 0 16 16" fill="none" xmlns="http://www.w3.org/2000/svg">
<path d="M1 2.82715C1.88498 2.45737 3.1539 2.05902 4.38768 1.93457C5.71799 1.80039 6.8464 1.99766 7.5 2.68628V12.4321C6.56511 11.9021 5.38065 11.8293 4.28732 11.9396C3.10693 12.0587 1.91771 12.4007 1 12.7506V2.82715ZM8.5 2.68628C9.1536 1.99766 10.282 1.80039 11.6123 1.93457C12.8461 2.05902 14.115 2.45737 15 2.82715V12.7506C14.0823 12.4007 12.8931 12.0587 11.7127 11.9396C10.6194 11.8293 9.43489 11.9021 8.5 12.4321V2.68628ZM8 1.78263C7.01509 0.936038 5.58683 0.808547 4.28732 0.939621C2.77322 1.09234 1.24459 1.61192 0.293099 2.04441C0.114601 2.12555 0 2.30353 0 2.4996V13.4996C0 13.6696 0.0863761 13.828 0.229307 13.92C0.372238 14.012 0.55214 14.0251 0.706901 13.9548C1.58875 13.5539 3.01012 13.0735 4.38768 12.9346C5.79565 12.7926 6.97747 13.0218 7.60957 13.8119C7.70445 13.9306 7.84811 13.9996 8 13.9996C8.15189 13.9996 8.29555 13.9306 8.39043 13.8119C9.02253 13.0218 10.2043 12.7926 11.6123 12.9346C12.9899 13.0735 14.4113 13.5539 15.2931 13.9548C15.4479 14.0251 15.6278 14.012 15.7707 13.92C15.9136 13.828 16 13.6696 16 13.4996V2.4996C16 2.30353 15.8854 2.12555 15.7069 2.04441C14.7554 1.61192 13.2268 1.09234 11.7127 0.939621C10.4132 0.808547 8.98491 0.936038 8 1.78263Z" fill="#333333"/>
<path d="M1 2.82715C1.88498 2.45737 3.1539 2.05902 4.38768 1.93457C5.71799 1.80039 6.8464 1.99766 7.5 2.68628V12.4321C6.56511 11.9021 5.38065 11.8293 4.28732 11.9396C3.10693 12.0587 1.91771 12.4007 1 12.7506V2.82715ZM8.5 2.68628C9.1536 1.99766 10.282 1.80039 11.6123 1.93457C12.8461 2.05902 14.115 2.45737 15 2.82715V12.7506C14.0823 12.4007 12.8931 12.0587 11.7127 11.9396C10.6194 11.8293 9.43489 11.9021 8.5 12.4321V2.68628ZM8 1.78263C7.01509 0.936038 5.58683 0.808547 4.28732 0.939621C2.77322 1.09234 1.24459 1.61192 0.293099 2.04441C0.114601 2.12555 0 2.30353 0 2.4996V13.4996C0 13.6696 0.0863761 13.828 0.229307 13.92C0.372238 14.012 0.55214 14.0251 0.706901 13.9548C1.58875 13.5539 3.01012 13.0735 4.38768 12.9346C5.79565 12.7926 6.97747 13.0218 7.60957 13.8119C7.70445 13.9306 7.84811 13.9996 8 13.9996C8.15189 13.9996 8.29555 13.9306 8.39043 13.8119C9.02253 13.0218 10.2043 12.7926 11.6123 12.9346C12.9899 13.0735 14.4113 13.5539 15.2931 13.9548C15.4479 14.0251 15.6278 14.012 15.7707 13.92C15.9136 13.828 16 13.6696 16 13.4996V2.4996C16 2.30353 15.8854 2.12555 15.7069 2.04441C14.7554 1.61192 13.2268 1.09234 11.7127 0.939621C10.4132 0.808547 8.98491 0.936038 8 1.78263Z" fill="black" fill-opacity="0.2"/>
<path d="M1 2.82715C1.88498 2.45737 3.1539 2.05902 4.38768 1.93457C5.71799 1.80039 6.8464 1.99766 7.5 2.68628V12.4321C6.56511 11.9021 5.38065 11.8293 4.28732 11.9396C3.10693 12.0587 1.91771 12.4007 1 12.7506V2.82715ZM8.5 2.68628C9.1536 1.99766 10.282 1.80039 11.6123 1.93457C12.8461 2.05902 14.115 2.45737 15 2.82715V12.7506C14.0823 12.4007 12.8931 12.0587 11.7127 11.9396C10.6194 11.8293 9.43489 11.9021 8.5 12.4321V2.68628ZM8 1.78263C7.01509 0.936038 5.58683 0.808547 4.28732 0.939621C2.77322 1.09234 1.24459 1.61192 0.293099 2.04441C0.114601 2.12555 0 2.30353 0 2.4996V13.4996C0 13.6696 0.0863761 13.828 0.229307 13.92C0.372238 14.012 0.55214 14.0251 0.706901 13.9548C1.58875 13.5539 3.01012 13.0735 4.38768 12.9346C5.79565 12.7926 6.97747 13.0218 7.60957 13.8119C7.70445 13.9306 7.84811 13.9996 8 13.9996C8.15189 13.9996 8.29555 13.9306 8.39043 13.8119C9.02253 13.0218 10.2043 12.7926 11.6123 12.9346C12.9899 13.0735 14.4113 13.5539 15.2931 13.9548C15.4479 14.0251 15.6278 14.012 15.7707 13.92C15.9136 13.828 16 13.6696 16 13.4996V2.4996C16 2.30353 15.8854 2.12555 15.7069 2.04441C14.7554 1.61192 13.2268 1.09234 11.7127 0.939621C10.4132 0.808547 8.98491 0.936038 8 1.78263Z" fill="black" fill-opacity="0.2"/>
<path d="M1 2.82715C1.88498 2.45737 3.1539 2.05902 4.38768 1.93457C5.71799 1.80039 6.8464 1.99766 7.5 2.68628V12.4321C6.56511 11.9021 5.38065 11.8293 4.28732 11.9396C3.10693 12.0587 1.91771 12.4007 1 12.7506V2.82715ZM8.5 2.68628C9.1536 1.99766 10.282 1.80039 11.6123 1.93457C12.8461 2.05902 14.115 2.45737 15 2.82715V12.7506C14.0823 12.4007 12.8931 12.0587 11.7127 11.9396C10.6194 11.8293 9.43489 11.9021 8.5 12.4321V2.68628ZM8 1.78263C7.01509 0.936038 5.58683 0.808547 4.28732 0.939621C2.77322 1.09234 1.24459 1.61192 0.293099 2.04441C0.114601 2.12555 0 2.30353 0 2.4996V13.4996C0 13.6696 0.0863761 13.828 0.229307 13.92C0.372238 14.012 0.55214 14.0251 0.706901 13.9548C1.58875 13.5539 3.01012 13.0735 4.38768 12.9346C5.79565 12.7926 6.97747 13.0218 7.60957 13.8119C7.70445 13.9306 7.84811 13.9996 8 13.9996C8.15189 13.9996 8.29555 13.9306 8.39043 13.8119C9.02253 13.0218 10.2043 12.7926 11.6123 12.9346C12.9899 13.0735 14.4113 13.5539 15.2931 13.9548C15.4479 14.0251 15.6278 14.012 15.7707 13.92C15.9136 13.828 16 13.6696 16 13.4996V2.4996C16 2.30353 15.8854 2.12555 15.7069 2.04441C14.7554 1.61192 13.2268 1.09234 11.7127 0.939621C10.4132 0.808547 8.98491 0.936038 8 1.78263Z" fill="black" fill-opacity="0.2"/>
<path d="M1 2.82715C1.88498 2.45737 3.1539 2.05902 4.38768 1.93457C5.71799 1.80039 6.8464 1.99766 7.5 2.68628V12.4321C6.56511 11.9021 5.38065 11.8293 4.28732 11.9396C3.10693 12.0587 1.91771 12.4007 1 12.7506V2.82715ZM8.5 2.68628C9.1536 1.99766 10.282 1.80039 11.6123 1.93457C12.8461 2.05902 14.115 2.45737 15 2.82715V12.7506C14.0823 12.4007 12.8931 12.0587 11.7127 11.9396C10.6194 11.8293 9.43489 11.9021 8.5 12.4321V2.68628ZM8 1.78263C7.01509 0.936038 5.58683 0.808547 4.28732 0.939621C2.77322 1.09234 1.24459 1.61192 0.293099 2.04441C0.114601 2.12555 0 2.30353 0 2.4996V13.4996C0 13.6696 0.0863761 13.828 0.229307 13.92C0.372238 14.012 0.55214 14.0251 0.706901 13.9548C1.58875 13.5539 3.01012 13.0735 4.38768 12.9346C5.79565 12.7926 6.97747 13.0218 7.60957 13.8119C7.70445 13.9306 7.84811 13.9996 8 13.9996C8.15189 13.9996 8.29555 13.9306 8.39043 13.8119C9.02253 13.0218 10.2043 12.7926 11.6123 12.9346C12.9899 13.0735 14.4113 13.5539 15.2931 13.9548C15.4479 14.0251 15.6278 14.012 15.7707 13.92C15.9136 13.828 16 13.6696 16 13.4996V2.4996C16 2.30353 15.8854 2.12555 15.7069 2.04441C14.7554 1.61192 13.2268 1.09234 11.7127 0.939621C10.4132 0.808547 8.98491 0.936038 8 1.78263Z" fill="black" fill-opacity="0.2"/>
<path d="M1 2.82715C1.88498 2.45737 3.1539 2.05902 4.38768 1.93457C5.71799 1.80039 6.8464 1.99766 7.5 2.68628V12.4321C6.56511 11.9021 5.38065 11.8293 4.28732 11.9396C3.10693 12.0587 1.91771 12.4007 1 12.7506V2.82715ZM8.5 2.68628C9.1536 1.99766 10.282 1.80039 11.6123 1.93457C12.8461 2.05902 14.115 2.45737 15 2.82715V12.7506C14.0823 12.4007 12.8931 12.0587 11.7127 11.9396C10.6194 11.8293 9.43489 11.9021 8.5 12.4321V2.68628ZM8 1.78263C7.01509 0.936038 5.58683 0.808547 4.28732 0.939621C2.77322 1.09234 1.24459 1.61192 0.293099 2.04441C0.114601 2.12555 0 2.30353 0 2.4996V13.4996C0 13.6696 0.0863761 13.828 0.229307 13.92C0.372238 14.012 0.55214 14.0251 0.706901 13.9548C1.58875 13.5539 3.01012 13.0735 4.38768 12.9346C5.79565 12.7926 6.97747 13.0218 7.60957 13.8119C7.70445 13.9306 7.84811 13.9996 8 13.9996C8.15189 13.9996 8.29555 13.9306 8.39043 13.8119C9.02253 13.0218 10.2043 12.7926 11.6123 12.9346C12.9899 13.0735 14.4113 13.5539 15.2931 13.9548C15.4479 14.0251 15.6278 14.012 15.7707 13.92C15.9136 13.828 16 13.6696 16 13.4996V2.4996C16 2.30353 15.8854 2.12555 15.7069 2.04441C14.7554 1.61192 13.2268 1.09234 11.7127 0.939621C10.4132 0.808547 8.98491 0.936038 8 1.78263Z" fill="black" fill-opacity="0.2"/>
<path d="M1 2.82715C1.88498 2.45737 3.1539 2.05902 4.38768 1.93457C5.71799 1.80039 6.8464 1.99766 7.5 2.68628V12.4321C6.56511 11.9021 5.38065 11.8293 4.28732 11.9396C3.10693 12.0587 1.91771 12.4007 1 12.7506V2.82715ZM8.5 2.68628C9.1536 1.99766 10.282 1.80039 11.6123 1.93457C12.8461 2.05902 14.115 2.45737 15 2.82715V12.7506C14.0823 12.4007 12.8931 12.0587 11.7127 11.9396C10.6194 11.8293 9.43489 11.9021 8.5 12.4321V2.68628ZM8 1.78263C7.01509 0.936038 5.58683 0.808547 4.28732 0.939621C2.77322 1.09234 1.24459 1.61192 0.293099 2.04441C0.114601 2.12555 0 2.30353 0 2.4996V13.4996C0 13.6696 0.0863761 13.828 0.229307 13.92C0.372238 14.012 0.55214 14.0251 0.706901 13.9548C1.58875 13.5539 3.01012 13.0735 4.38768 12.9346C5.79565 12.7926 6.97747 13.0218 7.60957 13.8119C7.70445 13.9306 7.84811 13.9996 8 13.9996C8.15189 13.9996 8.29555 13.9306 8.39043 13.8119C9.02253 13.0218 10.2043 12.7926 11.6123 12.9346C12.9899 13.0735 14.4113 13.5539 15.2931 13.9548C15.4479 14.0251 15.6278 14.012 15.7707 13.92C15.9136 13.828 16 13.6696 16 13.4996V2.4996C16 2.30353 15.8854 2.12555 15.7069 2.04441C14.7554 1.61192 13.2268 1.09234 11.7127 0.939621C10.4132 0.808547 8.98491 0.936038 8 1.78263Z" fill="black" fill-opacity="0.2"/>
<path d="M1 2.82715C1.88498 2.45737 3.1539 2.05902 4.38768 1.93457C5.71799 1.80039 6.8464 1.99766 7.5 2.68628V12.4321C6.56511 11.9021 5.38065 11.8293 4.28732 11.9396C3.10693 12.0587 1.91771 12.4007 1 12.7506V2.82715ZM8.5 2.68628C9.1536 1.99766 10.282 1.80039 11.6123 1.93457C12.8461 2.05902 14.115 2.45737 15 2.82715V12.7506C14.0823 12.4007 12.8931 12.0587 11.7127 11.9396C10.6194 11.8293 9.43489 11.9021 8.5 12.4321V2.68628ZM8 1.78263C7.01509 0.936038 5.58683 0.808547 4.28732 0.939621C2.77322 1.09234 1.24459 1.61192 0.293099 2.04441C0.114601 2.12555 0 2.30353 0 2.4996V13.4996C0 13.6696 0.0863761 13.828 0.229307 13.92C0.372238 14.012 0.55214 14.0251 0.706901 13.9548C1.58875 13.5539 3.01012 13.0735 4.38768 12.9346C5.79565 12.7926 6.97747 13.0218 7.60957 13.8119C7.70445 13.9306 7.84811 13.9996 8 13.9996C8.15189 13.9996 8.29555 13.9306 8.39043 13.8119C9.02253 13.0218 10.2043 12.7926 11.6123 12.9346C12.9899 13.0735 14.4113 13.5539 15.2931 13.9548C15.4479 14.0251 15.6278 14.012 15.7707 13.92C15.9136 13.828 16 13.6696 16 13.4996V2.4996C16 2.30353 15.8854 2.12555 15.7069 2.04441C14.7554 1.61192 13.2268 1.09234 11.7127 0.939621C10.4132 0.808547 8.98491 0.936038 8 1.78263Z" fill="black" fill-opacity="0.2"/>
<path d="M1 2.82715C1.88498 2.45737 3.1539 2.05902 4.38768 1.93457C5.71799 1.80039 6.8464 1.99766 7.5 2.68628V12.4321C6.56511 11.9021 5.38065 11.8293 4.28732 11.9396C3.10693 12.0587 1.91771 12.4007 1 12.7506V2.82715ZM8.5 2.68628C9.1536 1.99766 10.282 1.80039 11.6123 1.93457C12.8461 2.05902 14.115 2.45737 15 2.82715V12.7506C14.0823 12.4007 12.8931 12.0587 11.7127 11.9396C10.6194 11.8293 9.43489 11.9021 8.5 12.4321V2.68628ZM8 1.78263C7.01509 0.936038 5.58683 0.808547 4.28732 0.939621C2.77322 1.09234 1.24459 1.61192 0.293099 2.04441C0.114601 2.12555 0 2.30353 0 2.4996V13.4996C0 13.6696 0.0863761 13.828 0.229307 13.92C0.372238 14.012 0.55214 14.0251 0.706901 13.9548C1.58875 13.5539 3.01012 13.0735 4.38768 12.9346C5.79565 12.7926 6.97747 13.0218 7.60957 13.8119C7.70445 13.9306 7.84811 13.9996 8 13.9996C8.15189 13.9996 8.29555 13.9306 8.39043 13.8119C9.02253 13.0218 10.2043 12.7926 11.6123 12.9346C12.9899 13.0735 14.4113 13.5539 15.2931 13.9548C15.4479 14.0251 15.6278 14.012 15.7707 13.92C15.9136 13.828 16 13.6696 16 13.4996V2.4996C16 2.30353 15.8854 2.12555 15.7069 2.04441C14.7554 1.61192 13.2268 1.09234 11.7127 0.939621C10.4132 0.808547 8.98491 0.936038 8 1.78263Z" fill="black" fill-opacity="0.2"/>
<path d="M1 2.82715C1.88498 2.45737 3.1539 2.05902 4.38768 1.93457C5.71799 1.80039 6.8464 1.99766 7.5 2.68628V12.4321C6.56511 11.9021 5.38065 11.8293 4.28732 11.9396C3.10693 12.0587 1.91771 12.4007 1 12.7506V2.82715ZM8.5 2.68628C9.1536 1.99766 10.282 1.80039 11.6123 1.93457C12.8461 2.05902 14.115 2.45737 15 2.82715V12.7506C14.0823 12.4007 12.8931 12.0587 11.7127 11.9396C10.6194 11.8293 9.43489 11.9021 8.5 12.4321V2.68628ZM8 1.78263C7.01509 0.936038 5.58683 0.808547 4.28732 0.939621C2.77322 1.09234 1.24459 1.61192 0.293099 2.04441C0.114601 2.12555 0 2.30353 0 2.4996V13.4996C0 13.6696 0.0863761 13.828 0.229307 13.92C0.372238 14.012 0.55214 14.0251 0.706901 13.9548C1.58875 13.5539 3.01012 13.0735 4.38768 12.9346C5.79565 12.7926 6.97747 13.0218 7.60957 13.8119C7.70445 13.9306 7.84811 13.9996 8 13.9996C8.15189 13.9996 8.29555 13.9306 8.39043 13.8119C9.02253 13.0218 10.2043 12.7926 11.6123 12.9346C12.9899 13.0735 14.4113 13.5539 15.2931 13.9548C15.4479 14.0251 15.6278 14.012 15.7707 13.92C15.9136 13.828 16 13.6696 16 13.4996V2.4996C16 2.30353 15.8854 2.12555 15.7069 2.04441C14.7554 1.61192 13.2268 1.09234 11.7127 0.939621C10.4132 0.808547 8.98491 0.936038 8 1.78263Z" fill="black" fill-opacity="0.2"/>
<path d="M1 2.82715C1.88498 2.45737 3.1539 2.05902 4.38768 1.93457C5.71799 1.80039 6.8464 1.99766 7.5 2.68628V12.4321C6.56511 11.9021 5.38065 11.8293 4.28732 11.9396C3.10693 12.0587 1.91771 12.4007 1 12.7506V2.82715ZM8.5 2.68628C9.1536 1.99766 10.282 1.80039 11.6123 1.93457C12.8461 2.05902 14.115 2.45737 15 2.82715V12.7506C14.0823 12.4007 12.8931 12.0587 11.7127 11.9396C10.6194 11.8293 9.43489 11.9021 8.5 12.4321V2.68628ZM8 1.78263C7.01509 0.936038 5.58683 0.808547 4.28732 0.939621C2.77322 1.09234 1.24459 1.61192 0.293099 2.04441C0.114601 2.12555 0 2.30353 0 2.4996V13.4996C0 13.6696 0.0863761 13.828 0.229307 13.92C0.372238 14.012 0.55214 14.0251 0.706901 13.9548C1.58875 13.5539 3.01012 13.0735 4.38768 12.9346C5.79565 12.7926 6.97747 13.0218 7.60957 13.8119C7.70445 13.9306 7.84811 13.9996 8 13.9996C8.15189 13.9996 8.29555 13.9306 8.39043 13.8119C9.02253 13.0218 10.2043 12.7926 11.6123 12.9346C12.9899 13.0735 14.4113 13.5539 15.2931 13.9548C15.4479 14.0251 15.6278 14.012 15.7707 13.92C15.9136 13.828 16 13.6696 16 13.4996V2.4996C16 2.30353 15.8854 2.12555 15.7069 2.04441C14.7554 1.61192 13.2268 1.09234 11.7127 0.939621C10.4132 0.808547 8.98491 0.936038 8 1.78263Z" fill="black" fill-opacity="0.2"/>
<path d="M1 2.82715C1.88498 2.45737 3.1539 2.05902 4.38768 1.93457C5.71799 1.80039 6.8464 1.99766 7.5 2.68628V12.4321C6.56511 11.9021 5.38065 11.8293 4.28732 11.9396C3.10693 12.0587 1.91771 12.4007 1 12.7506V2.82715ZM8.5 2.68628C9.1536 1.99766 10.282 1.80039 11.6123 1.93457C12.8461 2.05902 14.115 2.45737 15 2.82715V12.7506C14.0823 12.4007 12.8931 12.0587 11.7127 11.9396C10.6194 11.8293 9.43489 11.9021 8.5 12.4321V2.68628ZM8 1.78263C7.01509 0.936038 5.58683 0.808547 4.28732 0.939621C2.77322 1.09234 1.24459 1.61192 0.293099 2.04441C0.114601 2.12555 0 2.30353 0 2.4996V13.4996C0 13.6696 0.0863761 13.828 0.229307 13.92C0.372238 14.012 0.55214 14.0251 0.706901 13.9548C1.58875 13.5539 3.01012 13.0735 4.38768 12.9346C5.79565 12.7926 6.97747 13.0218 7.60957 13.8119C7.70445 13.9306 7.84811 13.9996 8 13.9996C8.15189 13.9996 8.29555 13.9306 8.39043 13.8119C9.02253 13.0218 10.2043 12.7926 11.6123 12.9346C12.9899 13.0735 14.4113 13.5539 15.2931 13.9548C15.4479 14.0251 15.6278 14.012 15.7707 13.92C15.9136 13.828 16 13.6696 16 13.4996V2.4996C16 2.30353 15.8854 2.12555 15.7069 2.04441C14.7554 1.61192 13.2268 1.09234 11.7127 0.939621C10.4132 0.808547 8.98491 0.936038 8 1.78263Z" fill="black" fill-opacity="0.2"/>
</svg>
