<svg width="11" height="13" viewBox="0 0 11 13" fill="none" xmlns="http://www.w3.org/2000/svg">
<path fill-rule="evenodd" clip-rule="evenodd" d="M6.85355 0.146447C7.04882 0.341709 7.04882 0.658291 6.85355 0.853553L1.20711 6.5L6.85355 12.1464C7.04882 12.3417 7.04882 12.6583 6.85355 12.8536C6.65829 13.0488 6.34171 13.0488 6.14645 12.8536L0.146447 6.85355C-0.0488155 6.65829 -0.0488155 6.34171 0.146447 6.14645L6.14645 0.146447C6.34171 -0.0488155 6.65829 -0.0488155 6.85355 0.146447Z" fill="#333333"/>
<path fill-rule="evenodd" clip-rule="evenodd" d="M10.8536 0.146447C11.0488 0.341709 11.0488 0.658291 10.8536 0.853553L5.20711 6.5L10.8536 12.1464C11.0488 12.3417 11.0488 12.6583 10.8536 12.8536C10.6583 13.0488 10.3417 13.0488 10.1464 12.8536L4.14645 6.85355C3.95118 6.65829 3.95118 6.34171 4.14645 6.14645L10.1464 0.146447C10.3417 -0.0488155 10.6583 -0.0488155 10.8536 0.146447Z" fill="#333333"/>
</svg>
