<svg width="11" height="13" viewBox="0 0 11 13" fill="none" xmlns="http://www.w3.org/2000/svg">
<path fill-rule="evenodd" clip-rule="evenodd" d="M0.146447 0.146447C0.341709 -0.0488155 0.658291 -0.0488155 0.853553 0.146447L6.85355 6.14645C7.04882 6.34171 7.04882 6.65829 6.85355 6.85355L0.853553 12.8536C0.658291 13.0488 0.341709 13.0488 0.146447 12.8536C-0.0488155 12.6583 -0.0488155 12.3417 0.146447 12.1464L5.79289 6.5L0.146447 0.853553C-0.0488155 0.658291 -0.0488155 0.341709 0.146447 0.146447Z" fill="#333333"/>
<path fill-rule="evenodd" clip-rule="evenodd" d="M4.14645 0.146447C4.34171 -0.0488155 4.65829 -0.0488155 4.85355 0.146447L10.8536 6.14645C11.0488 6.34171 11.0488 6.65829 10.8536 6.85355L4.85355 12.8536C4.65829 13.0488 4.34171 13.0488 4.14645 12.8536C3.95118 12.6583 3.95118 12.3417 4.14645 12.1464L9.79289 6.5L4.14645 0.853553C3.95118 0.658291 3.95118 0.341709 4.14645 0.146447Z" fill="#333333"/>
</svg>
